<mxfile host="app.diagrams.net" modified="2023-09-09T19:24:03.813Z" agent="Mozilla/5.0 (Macintosh; Intel Mac OS X 10_15_7) AppleWebKit/537.36 (KHTML, like Gecko) Chrome/116.0.0.0 Safari/537.36" etag="E1-1VES5z9pl7r-s0oyU" version="21.5.0" type="device">
  <diagram name="Página-1" id="jlWkr9jTesIsvwngvP2u">
    <mxGraphModel dx="1026" dy="654" grid="1" gridSize="10" guides="1" tooltips="1" connect="1" arrows="1" fold="1" page="1" pageScale="1" pageWidth="827" pageHeight="1169" math="0" shadow="0">
      <root>
        <mxCell id="0" />
        <mxCell id="1" parent="0" />
        <mxCell id="qYkrpWfhHb9IL8PoPZmV-12" value="" style="rounded=0;whiteSpace=wrap;html=1;" vertex="1" parent="1">
          <mxGeometry x="90" y="80" width="660" height="530" as="geometry" />
        </mxCell>
        <mxCell id="qYkrpWfhHb9IL8PoPZmV-27" style="edgeStyle=orthogonalEdgeStyle;rounded=0;orthogonalLoop=1;jettySize=auto;html=1;" edge="1" parent="1" source="qYkrpWfhHb9IL8PoPZmV-8" target="qYkrpWfhHb9IL8PoPZmV-13">
          <mxGeometry relative="1" as="geometry">
            <Array as="points">
              <mxPoint x="55" y="420" />
            </Array>
          </mxGeometry>
        </mxCell>
        <mxCell id="qYkrpWfhHb9IL8PoPZmV-28" style="edgeStyle=orthogonalEdgeStyle;rounded=0;orthogonalLoop=1;jettySize=auto;html=1;entryX=0;entryY=0.5;entryDx=0;entryDy=0;" edge="1" parent="1" source="qYkrpWfhHb9IL8PoPZmV-8" target="qYkrpWfhHb9IL8PoPZmV-14">
          <mxGeometry relative="1" as="geometry" />
        </mxCell>
        <mxCell id="qYkrpWfhHb9IL8PoPZmV-8" value="Paciente" style="shape=umlActor;verticalLabelPosition=bottom;verticalAlign=top;html=1;outlineConnect=0;" vertex="1" parent="1">
          <mxGeometry x="40" y="260" width="30" height="60" as="geometry" />
        </mxCell>
        <mxCell id="qYkrpWfhHb9IL8PoPZmV-9" value="Médico&lt;br&gt;" style="shape=umlActor;verticalLabelPosition=bottom;verticalAlign=top;html=1;outlineConnect=0;" vertex="1" parent="1">
          <mxGeometry x="770" y="200" width="30" height="60" as="geometry" />
        </mxCell>
        <mxCell id="qYkrpWfhHb9IL8PoPZmV-49" style="edgeStyle=orthogonalEdgeStyle;rounded=0;orthogonalLoop=1;jettySize=auto;html=1;" edge="1" parent="1" source="qYkrpWfhHb9IL8PoPZmV-13" target="qYkrpWfhHb9IL8PoPZmV-39">
          <mxGeometry relative="1" as="geometry">
            <Array as="points">
              <mxPoint x="400" y="420" />
            </Array>
          </mxGeometry>
        </mxCell>
        <mxCell id="qYkrpWfhHb9IL8PoPZmV-50" value="&amp;lt;&amp;lt;include&amp;gt;&amp;gt;" style="edgeLabel;html=1;align=center;verticalAlign=middle;resizable=0;points=[];" vertex="1" connectable="0" parent="qYkrpWfhHb9IL8PoPZmV-49">
          <mxGeometry x="-0.5571" y="3" relative="1" as="geometry">
            <mxPoint x="27" y="1" as="offset" />
          </mxGeometry>
        </mxCell>
        <mxCell id="qYkrpWfhHb9IL8PoPZmV-13" value="Agendar consulta" style="ellipse;whiteSpace=wrap;html=1;" vertex="1" parent="1">
          <mxGeometry x="160" y="400" width="120" height="40" as="geometry" />
        </mxCell>
        <mxCell id="qYkrpWfhHb9IL8PoPZmV-44" style="edgeStyle=orthogonalEdgeStyle;rounded=0;orthogonalLoop=1;jettySize=auto;html=1;entryX=0;entryY=0.5;entryDx=0;entryDy=0;" edge="1" parent="1" source="qYkrpWfhHb9IL8PoPZmV-14" target="qYkrpWfhHb9IL8PoPZmV-39">
          <mxGeometry relative="1" as="geometry">
            <Array as="points">
              <mxPoint x="220" y="380" />
            </Array>
          </mxGeometry>
        </mxCell>
        <mxCell id="qYkrpWfhHb9IL8PoPZmV-45" value="&amp;lt;&amp;lt;include&amp;gt;&amp;gt;" style="edgeLabel;html=1;align=center;verticalAlign=middle;resizable=0;points=[];" vertex="1" connectable="0" parent="qYkrpWfhHb9IL8PoPZmV-44">
          <mxGeometry x="0.1112" y="2" relative="1" as="geometry">
            <mxPoint x="20" as="offset" />
          </mxGeometry>
        </mxCell>
        <mxCell id="qYkrpWfhHb9IL8PoPZmV-52" style="edgeStyle=orthogonalEdgeStyle;rounded=0;orthogonalLoop=1;jettySize=auto;html=1;" edge="1" parent="1" source="qYkrpWfhHb9IL8PoPZmV-14" target="qYkrpWfhHb9IL8PoPZmV-20">
          <mxGeometry relative="1" as="geometry">
            <Array as="points">
              <mxPoint x="220" y="200" />
            </Array>
          </mxGeometry>
        </mxCell>
        <mxCell id="qYkrpWfhHb9IL8PoPZmV-53" value="&amp;lt;&amp;lt;extend&amp;gt;&amp;gt;" style="edgeLabel;html=1;align=center;verticalAlign=middle;resizable=0;points=[];" vertex="1" connectable="0" parent="qYkrpWfhHb9IL8PoPZmV-52">
          <mxGeometry x="-0.1867" y="4" relative="1" as="geometry">
            <mxPoint x="76" y="1" as="offset" />
          </mxGeometry>
        </mxCell>
        <mxCell id="qYkrpWfhHb9IL8PoPZmV-14" value="Realizar upload de exames" style="ellipse;whiteSpace=wrap;html=1;" vertex="1" parent="1">
          <mxGeometry x="160" y="270" width="120" height="40" as="geometry" />
        </mxCell>
        <mxCell id="qYkrpWfhHb9IL8PoPZmV-42" style="edgeStyle=orthogonalEdgeStyle;rounded=0;orthogonalLoop=1;jettySize=auto;html=1;" edge="1" parent="1" source="qYkrpWfhHb9IL8PoPZmV-15" target="qYkrpWfhHb9IL8PoPZmV-20">
          <mxGeometry relative="1" as="geometry" />
        </mxCell>
        <mxCell id="qYkrpWfhHb9IL8PoPZmV-43" value="&amp;lt;&amp;lt;extend&amp;gt;&amp;gt;" style="edgeLabel;html=1;align=center;verticalAlign=middle;resizable=0;points=[];" vertex="1" connectable="0" parent="qYkrpWfhHb9IL8PoPZmV-42">
          <mxGeometry x="0.1" y="1" relative="1" as="geometry">
            <mxPoint as="offset" />
          </mxGeometry>
        </mxCell>
        <mxCell id="qYkrpWfhHb9IL8PoPZmV-15" value="Emitir receita" style="ellipse;whiteSpace=wrap;html=1;" vertex="1" parent="1">
          <mxGeometry x="560" y="270" width="120" height="40" as="geometry" />
        </mxCell>
        <mxCell id="qYkrpWfhHb9IL8PoPZmV-40" style="edgeStyle=orthogonalEdgeStyle;rounded=0;orthogonalLoop=1;jettySize=auto;html=1;" edge="1" parent="1" source="qYkrpWfhHb9IL8PoPZmV-20" target="qYkrpWfhHb9IL8PoPZmV-39">
          <mxGeometry relative="1" as="geometry">
            <Array as="points">
              <mxPoint x="540" y="210" />
              <mxPoint x="540" y="250" />
              <mxPoint x="490" y="250" />
              <mxPoint x="490" y="380" />
            </Array>
          </mxGeometry>
        </mxCell>
        <mxCell id="qYkrpWfhHb9IL8PoPZmV-41" value="&amp;lt;&amp;lt;include&amp;gt;&amp;gt;" style="edgeLabel;html=1;align=center;verticalAlign=middle;resizable=0;points=[];" vertex="1" connectable="0" parent="qYkrpWfhHb9IL8PoPZmV-40">
          <mxGeometry x="0.6966" y="-4" relative="1" as="geometry">
            <mxPoint y="-29" as="offset" />
          </mxGeometry>
        </mxCell>
        <mxCell id="qYkrpWfhHb9IL8PoPZmV-20" value="Realizar consulta" style="ellipse;whiteSpace=wrap;html=1;" vertex="1" parent="1">
          <mxGeometry x="560" y="190" width="120" height="40" as="geometry" />
        </mxCell>
        <mxCell id="qYkrpWfhHb9IL8PoPZmV-25" style="edgeStyle=orthogonalEdgeStyle;rounded=0;orthogonalLoop=1;jettySize=auto;html=1;" edge="1" parent="1" source="qYkrpWfhHb9IL8PoPZmV-9" target="qYkrpWfhHb9IL8PoPZmV-20">
          <mxGeometry relative="1" as="geometry" />
        </mxCell>
        <mxCell id="qYkrpWfhHb9IL8PoPZmV-26" style="edgeStyle=orthogonalEdgeStyle;rounded=0;orthogonalLoop=1;jettySize=auto;html=1;entryX=1;entryY=0.5;entryDx=0;entryDy=0;" edge="1" parent="1" source="qYkrpWfhHb9IL8PoPZmV-9" target="qYkrpWfhHb9IL8PoPZmV-15">
          <mxGeometry relative="1" as="geometry" />
        </mxCell>
        <mxCell id="qYkrpWfhHb9IL8PoPZmV-32" style="edgeStyle=orthogonalEdgeStyle;rounded=0;orthogonalLoop=1;jettySize=auto;html=1;" edge="1" parent="1" source="qYkrpWfhHb9IL8PoPZmV-30" target="qYkrpWfhHb9IL8PoPZmV-31">
          <mxGeometry relative="1" as="geometry" />
        </mxCell>
        <mxCell id="qYkrpWfhHb9IL8PoPZmV-30" value="&lt;i&gt;Wearebles&lt;/i&gt;" style="shape=umlActor;verticalLabelPosition=bottom;verticalAlign=top;html=1;outlineConnect=0;" vertex="1" parent="1">
          <mxGeometry x="40" y="470" width="30" height="60" as="geometry" />
        </mxCell>
        <mxCell id="qYkrpWfhHb9IL8PoPZmV-31" value="Realizar upload de dados" style="ellipse;whiteSpace=wrap;html=1;" vertex="1" parent="1">
          <mxGeometry x="160" y="480" width="120" height="40" as="geometry" />
        </mxCell>
        <mxCell id="qYkrpWfhHb9IL8PoPZmV-36" style="edgeStyle=orthogonalEdgeStyle;rounded=0;orthogonalLoop=1;jettySize=auto;html=1;" edge="1" parent="1" source="qYkrpWfhHb9IL8PoPZmV-33" target="qYkrpWfhHb9IL8PoPZmV-31">
          <mxGeometry relative="1" as="geometry" />
        </mxCell>
        <mxCell id="qYkrpWfhHb9IL8PoPZmV-60" value="&amp;lt;&amp;lt;include&amp;gt;&amp;gt;" style="edgeLabel;html=1;align=center;verticalAlign=middle;resizable=0;points=[];" vertex="1" connectable="0" parent="qYkrpWfhHb9IL8PoPZmV-36">
          <mxGeometry x="0.3667" relative="1" as="geometry">
            <mxPoint x="21" y="10" as="offset" />
          </mxGeometry>
        </mxCell>
        <mxCell id="qYkrpWfhHb9IL8PoPZmV-33" value="Analisar dados coletados em tempo real" style="ellipse;whiteSpace=wrap;html=1;" vertex="1" parent="1">
          <mxGeometry x="340" y="480" width="120" height="40" as="geometry" />
        </mxCell>
        <mxCell id="qYkrpWfhHb9IL8PoPZmV-35" style="edgeStyle=orthogonalEdgeStyle;rounded=0;orthogonalLoop=1;jettySize=auto;html=1;" edge="1" parent="1" source="qYkrpWfhHb9IL8PoPZmV-34" target="qYkrpWfhHb9IL8PoPZmV-33">
          <mxGeometry relative="1" as="geometry" />
        </mxCell>
        <mxCell id="qYkrpWfhHb9IL8PoPZmV-38" style="edgeStyle=orthogonalEdgeStyle;rounded=0;orthogonalLoop=1;jettySize=auto;html=1;" edge="1" parent="1" source="qYkrpWfhHb9IL8PoPZmV-34" target="qYkrpWfhHb9IL8PoPZmV-37">
          <mxGeometry relative="1" as="geometry">
            <Array as="points">
              <mxPoint x="400" y="570" />
              <mxPoint x="620" y="570" />
            </Array>
          </mxGeometry>
        </mxCell>
        <mxCell id="qYkrpWfhHb9IL8PoPZmV-34" value="IA" style="shape=umlActor;verticalLabelPosition=bottom;verticalAlign=top;html=1;outlineConnect=0;" vertex="1" parent="1">
          <mxGeometry x="385" y="640" width="30" height="60" as="geometry" />
        </mxCell>
        <mxCell id="qYkrpWfhHb9IL8PoPZmV-58" style="edgeStyle=orthogonalEdgeStyle;rounded=0;orthogonalLoop=1;jettySize=auto;html=1;" edge="1" parent="1" source="qYkrpWfhHb9IL8PoPZmV-37" target="qYkrpWfhHb9IL8PoPZmV-20">
          <mxGeometry relative="1" as="geometry">
            <Array as="points">
              <mxPoint x="540" y="500" />
              <mxPoint x="540" y="210" />
            </Array>
          </mxGeometry>
        </mxCell>
        <mxCell id="qYkrpWfhHb9IL8PoPZmV-59" value="&amp;lt;&amp;lt;extend&amp;gt;&amp;gt;" style="edgeLabel;html=1;align=center;verticalAlign=middle;resizable=0;points=[];" vertex="1" connectable="0" parent="qYkrpWfhHb9IL8PoPZmV-58">
          <mxGeometry x="-0.4576" relative="1" as="geometry">
            <mxPoint as="offset" />
          </mxGeometry>
        </mxCell>
        <mxCell id="qYkrpWfhHb9IL8PoPZmV-37" value="Traduzir discurso" style="ellipse;whiteSpace=wrap;html=1;" vertex="1" parent="1">
          <mxGeometry x="560" y="480" width="120" height="40" as="geometry" />
        </mxCell>
        <mxCell id="qYkrpWfhHb9IL8PoPZmV-57" value="&amp;lt;&amp;lt;extend&amp;gt;&amp;gt;" style="edgeStyle=orthogonalEdgeStyle;rounded=0;orthogonalLoop=1;jettySize=auto;html=1;" edge="1" parent="1" source="qYkrpWfhHb9IL8PoPZmV-39" target="qYkrpWfhHb9IL8PoPZmV-56">
          <mxGeometry relative="1" as="geometry" />
        </mxCell>
        <mxCell id="qYkrpWfhHb9IL8PoPZmV-39" value="Realizar login" style="ellipse;whiteSpace=wrap;html=1;" vertex="1" parent="1">
          <mxGeometry x="340" y="360" width="120" height="40" as="geometry" />
        </mxCell>
        <mxCell id="qYkrpWfhHb9IL8PoPZmV-47" style="edgeStyle=orthogonalEdgeStyle;rounded=0;orthogonalLoop=1;jettySize=auto;html=1;entryX=0.5;entryY=0;entryDx=0;entryDy=0;" edge="1" parent="1" source="qYkrpWfhHb9IL8PoPZmV-46" target="qYkrpWfhHb9IL8PoPZmV-20">
          <mxGeometry relative="1" as="geometry" />
        </mxCell>
        <mxCell id="qYkrpWfhHb9IL8PoPZmV-48" value="&amp;lt;&amp;lt;extend&amp;gt;&amp;gt;" style="edgeLabel;html=1;align=center;verticalAlign=middle;resizable=0;points=[];" vertex="1" connectable="0" parent="qYkrpWfhHb9IL8PoPZmV-47">
          <mxGeometry x="-0.375" relative="1" as="geometry">
            <mxPoint as="offset" />
          </mxGeometry>
        </mxCell>
        <mxCell id="qYkrpWfhHb9IL8PoPZmV-46" value="Realizar diagnóstico" style="ellipse;whiteSpace=wrap;html=1;" vertex="1" parent="1">
          <mxGeometry x="560" y="110" width="120" height="40" as="geometry" />
        </mxCell>
        <mxCell id="qYkrpWfhHb9IL8PoPZmV-56" value="Realizar cadastro" style="ellipse;whiteSpace=wrap;html=1;" vertex="1" parent="1">
          <mxGeometry x="340" y="270" width="120" height="40" as="geometry" />
        </mxCell>
      </root>
    </mxGraphModel>
  </diagram>
</mxfile>
